<svg xmlns="http://www.w3.org/2000/svg" xmlns:xlink="http://www.w3.org/1999/xlink" style="enable-background:new 0 0 261.2 108" x="0" y="0" version="1.1" viewBox="0 0 261.2 108" xml:space="preserve"><style type="text/css">.st0{fill:#2d2e2d}.st1{fill:#fff;stroke:#fff;stroke-miterlimit:10}.st2{font-family:&apos;PrintClearly&apos;}.st3{font-size:44.561px}.st4{fill:#fff}.st5{font-family:&apos;HelveticaNeue&apos;}.st6{font-size:21.19px}.st7{fill:#f4f4f4;stroke:#f4f4f5;stroke-width:.25;stroke-miterlimit:10}.st8{display:none}.st9{display:inline}.st10,.st11{stroke-width:.25;stroke-miterlimit:10}.st10{fill:#a1a0a0;stroke:#bababa}.st11{fill:#747474}.st11,.st12,.st13{stroke:#bababa}.st12,.st13,.st14,.st15,.st16,.st17,.st18,.st19{stroke-width:.25;stroke-miterlimit:10}.st12{fill:#737374}.st13{fill:#575757}.st14{fill:#f4826e}.st14,.st15,.st16,.st17,.st18,.st19{stroke:#fff}.st15{fill:#f0ea4f}.st16{fill:#6e7dbc}.st17{fill:#00b2d8}.st18{fill:#a563a9}.st19{fill:#2fb66f}.st20{fill:#f4f4f4}.st21{fill:#2b2c2b;stroke:#2b2c2b;stroke-miterlimit:10}.st22{fill:#353635}.st23{font-family:&apos;HelveticaNeue-Medium&apos;}.st24{fill:#1c1c1c;stroke:#1b1b1b}.st24,.st25,.st26,.st27,.st28{stroke-width:.25;stroke-miterlimit:10}.st25{fill:#5e5f5f;stroke:#333}.st26{fill:#8c8c8c;stroke:#2b2c2b}.st27,.st28{fill:#5e5f5f;stroke:#4f4f4f}.st28{fill:#8c8c8c}.st29{fill:#3a3b3a}.st30{fill:#4a4a4a}.st31{fill:#f4826e}.st31,.st32,.st33,.st34,.st35,.st36{stroke:#2b2c2b;stroke-width:.25;stroke-miterlimit:10}.st32{fill:#f0ea4f}.st33{fill:#6e7dbc}.st34{fill:#00b2d8}.st35{fill:#a563a9}.st36{fill:#2fb66f}</style><g id="Layer_2"><g><g><path d="M249.2,108H12c-6.6,0-12-5.4-12-12V12C0,5.4,5.4,0,12,0h237.2c6.6,0,12,5.4,12,12v84 C261.2,102.6,255.8,108,249.2,108z" class="st0"/></g><text class="st1 st2 st3" transform="matrix(1 0 0 1 83.7554 80.041)">ethereum</text><text class="st4 st5 st6" transform="matrix(1.0006 0 0 1 84.8555 42.8711)">Built on</text><g><path d="M19.5,54.2l23,13.6l0.5-0.5V17.7L42.5,16L19.5,54.2z" class="st7"/><path d="M42.5,43.7v24.1l23-13.6L42.5,16V43.7z" class="st7"/><path d="M19.5,58.6l23,32.4l0.3-0.8V72.5l-0.3-0.3L19.5,58.6z" class="st7"/><path d="M65.6,58.6l-23,13.6V91L65.6,58.6z" class="st7"/><path d="M42.5,43.7l-23,10.5l23,13.6V43.7z" class="st7"/><path d="M42.5,43.7v24.1l23-13.6L42.5,43.7z" class="st7"/></g></g></g><g id="Layer_1" class="st8"><g class="st9"><g><path d="M249.2,108H12c-6.6,0-12-5.4-12-12V12C0,5.4,5.4,0,12,0h237.2c6.6,0,12,5.4,12,12v84 C261.2,102.6,255.8,108,249.2,108z" class="st0"/></g><text class="st1 st2 st3" transform="matrix(1 0 0 1 83.7554 80.041)">ethereum</text><text class="st4 st5 st6" transform="matrix(1.0006 0 0 1 84.8555 42.8711)">Built on</text><g><path d="M19.5,54.2l23,13.6l0.5-0.5V17.7L42.5,16L19.5,54.2z" class="st10"/><path d="M42.5,43.7v24.1l23-13.6L42.5,16V43.7z" class="st11"/><path d="M19.5,58.6l23,32.4l0.3-0.8V72.5l-0.3-0.3L19.5,58.6z" class="st10"/><path d="M65.6,58.6l-23,13.6V91L65.6,58.6z" class="st11"/><path d="M42.5,43.7l-23,10.5l23,13.6V43.7z" class="st12"/><path d="M42.5,43.7v24.1l23-13.6L42.5,43.7z" class="st13"/></g></g></g><g id="Layer_3" class="st8"><g class="st9"><g><path d="M249.2,108H12c-6.6,0-12-5.4-12-12V12C0,5.4,5.4,0,12,0h237.2c6.6,0,12,5.4,12,12v84 C261.2,102.6,255.8,108,249.2,108z" class="st0"/></g><text class="st1 st2 st3" transform="matrix(1 0 0 1 83.7554 80.041)">ethereum</text><text class="st4 st5 st6" transform="matrix(1.0006 0 0 1 84.8555 42.8711)">Built on</text><g><path d="M42.6,15.4l-0.5,1.8v51.1l0.5,0.5l23.7-14L42.6,15.4z" class="st14"/><path d="M42.6,15.4L18.9,54.8l23.7,14V44V15.4z" class="st15"/><path d="M42.6,73.3l-0.3,0.4v18.2l0.3,0.9l23.7-33.4L42.6,73.3z" class="st16"/><path d="M42.6,92.7V73.3l-23.7-14L42.6,92.7z" class="st17"/><path d="M42.6,68.8l23.7-14L42.6,44L42.6,68.8z" class="st18"/><path d="M18.9,54.8l23.7,14V44L18.9,54.8z" class="st19"/></g></g></g><g id="Layer_4" class="st8"><g class="st9"><g><path d="M249.2,108H12c-6.6,0-12-5.4-12-12V12C0,5.4,5.4,0,12,0h237.2c6.6,0,12,5.4,12,12v84 C261.2,102.6,255.8,108,249.2,108z" class="st20"/></g><text class="st21 st2 st3" transform="matrix(1 0 0 1 83.7554 81.041)">ethereum</text><text class="st22 st23 st6" transform="matrix(1.0006 0 0 1 84.8555 42.8711)">Built on</text><g><path d="M43.5,15.9L43,17.6v50.5l0.5,0.5L67,54.7L43.5,15.9z" class="st24"/><path d="M43.5,15.9L20.1,54.7l23.4,13.9V44.1V15.9z" class="st24"/><path d="M43.5,73l-0.3,0.4v18l0.3,0.8l23.5-33L43.5,73z" class="st24"/><path d="M43.5,92.2V73L20.1,59.2L43.5,92.2z" class="st24"/><path d="M43.5,68.6L67,54.7L43.5,44.1V68.6z" class="st24"/><path d="M20.1,54.7l23.4,13.9V44.1L20.1,54.7z" class="st24"/></g></g></g><g id="Layer_5" class="st8"><g class="st9"><g><path d="M249.2,108H12c-6.6,0-12-5.4-12-12V12C0,5.4,5.4,0,12,0h237.2c6.6,0,12,5.4,12,12v84 C261.2,102.6,255.8,108,249.2,108z" class="st20"/></g><text class="st21 st2 st3" transform="matrix(1 0 0 1 83.7554 81.041)">ethereum</text><text class="st22 st23 st6" transform="matrix(1.0006 0 0 1 84.8555 42.8711)">Built on</text><g><path d="M43.5,15.9L43,17.6v50.5l0.5,0.5L67,54.7L43.5,15.9z" class="st25"/><path d="M43.5,15.9L20.1,54.7l23.4,13.9V44.1V15.9z" class="st26"/><path d="M43.5,73l-0.3,0.4v18l0.3,0.8l23.5-33L43.5,73z" class="st27"/><path d="M43.5,92.2V73L20.1,59.2L43.5,92.2z" class="st28"/><path d="M43.5,68.6L67,54.7L43.5,44.1V68.6z" class="st29"/><path d="M20.1,54.7l23.4,13.9V44.1L20.1,54.7z" class="st30"/></g></g></g><g id="Layer_6" class="st8"><g class="st9"><g><path d="M249.2,108H12c-6.6,0-12-5.4-12-12V12C0,5.4,5.4,0,12,0h237.2c6.6,0,12,5.4,12,12v84 C261.2,102.6,255.8,108,249.2,108z" class="st20"/></g><text class="st21 st2 st3" transform="matrix(1 0 0 1 83.7554 81.041)">ethereum</text><text class="st22 st23 st6" transform="matrix(1.0006 0 0 1 84.8555 42.8711)">Built on</text><g><path d="M42.6,15.4l-0.5,1.8v51.1l0.5,0.5l23.7-14L42.6,15.4z" class="st31"/><path d="M42.6,15.4L18.9,54.8l23.7,14V44V15.4z" class="st32"/><path d="M42.6,73.3l-0.3,0.4v18.2l0.3,0.9l23.7-33.4L42.6,73.3z" class="st33"/><path d="M42.6,92.7V73.3l-23.7-14L42.6,92.7z" class="st34"/><path d="M42.6,68.8l23.7-14L42.6,44L42.6,68.8z" class="st35"/><path d="M18.9,54.8l23.7,14V44L18.9,54.8z" class="st36"/></g></g></g></svg>